{
    "asset" : {
        "generator" : "Khronos glTF Blender I/O v1.7.33",
        "version" : "2.0"
    },
    "scene" : 0,
    "scenes" : [
        {
            "name" : "Scene",
            "nodes" : [
                0,
                1
            ]
        }
    ],
    "nodes" : [
        {
            "mesh" : 0,
            "name" : "Plane",
            "rotation" : [
                0,
                0,
                -0.7071067690849304,
                0.7071068286895752
            ],
            "translation" : [
                0,
                0.9917646646499634,
                0
            ]
        },
        {
            "mesh" : 1,
            "name" : "Text",
            "rotation" : [
                0.5,
                0.5,
                -0.5,
                0.4999999701976776
            ],
            "scale" : [
                1.2342334985733032,
                1.2342334985733032,
                1.2342334985733032
            ],
            "translation" : [
                0.385294646024704,
                5.033026218414307,
                2.230571985244751
            ]
        }
    ],
    "materials" : [
        {
            "doubleSided" : true,
            "name" : "Material.001",
            "pbrMetallicRoughness" : {
                "metallicFactor" : 0,
                "roughnessFactor" : 0.5
            }
        },
        {
            "doubleSided" : true,
            "name" : "Material.002",
            "pbrMetallicRoughness" : {
                "metallicFactor" : 0,
                "roughnessFactor" : 0.5
            }
        }
    ],
    "meshes" : [
        {
            "name" : "Plane",
            "primitives" : [
                {
                    "attributes" : {
                        "POSITION" : 0,
                        "NORMAL" : 1,
                        "TEXCOORD_0" : 2
                    },
                    "indices" : 3,
                    "material" : 0
                }
            ]
        },
        {
            "name" : "Text",
            "primitives" : [
                {
                    "attributes" : {
                        "POSITION" : 4,
                        "NORMAL" : 5,
                        "TEXCOORD_0" : 6
                    },
                    "indices" : 7,
                    "material" : 1
                }
            ]
        }
    ],
    "accessors" : [
        {
            "bufferView" : 0,
            "componentType" : 5126,
            "count" : 894,
            "max" : [
                0.9503011703491211,
                1.4262759685516357,
                2.3966925144195557
            ],
            "min" : [
                -4.039951801300049,
                3.7521559193010035e-09,
                -2.531404733657837
            ],
            "type" : "VEC3"
        },
        {
            "bufferView" : 1,
            "componentType" : 5126,
            "count" : 894,
            "type" : "VEC3"
        },
        {
            "bufferView" : 2,
            "componentType" : 5126,
            "count" : 894,
            "type" : "VEC2"
        },
        {
            "bufferView" : 3,
            "componentType" : 5123,
            "count" : 1548,
            "type" : "SCALAR"
        },
        {
            "bufferView" : 4,
            "componentType" : 5126,
            "count" : 2333,
            "max" : [
                3.574000120162964,
                0.4944489002227783,
                0.009000013582408428
            ],
            "min" : [
                0.05000000074505806,
                0,
                -0.6910000443458557
            ],
            "type" : "VEC3"
        },
        {
            "bufferView" : 5,
            "componentType" : 5126,
            "count" : 2333,
            "type" : "VEC3"
        },
        {
            "bufferView" : 6,
            "componentType" : 5126,
            "count" : 2333,
            "type" : "VEC2"
        },
        {
            "bufferView" : 7,
            "componentType" : 5123,
            "count" : 3672,
            "type" : "SCALAR"
        }
    ],
    "bufferViews" : [
        {
            "buffer" : 0,
            "byteLength" : 10728,
            "byteOffset" : 0
        },
        {
            "buffer" : 0,
            "byteLength" : 10728,
            "byteOffset" : 10728
        },
        {
            "buffer" : 0,
            "byteLength" : 7152,
            "byteOffset" : 21456
        },
        {
            "buffer" : 0,
            "byteLength" : 3096,
            "byteOffset" : 28608
        },
        {
            "buffer" : 0,
            "byteLength" : 27996,
            "byteOffset" : 31704
        },
        {
            "buffer" : 0,
            "byteLength" : 27996,
            "byteOffset" : 59700
        },
        {
            "buffer" : 0,
            "byteLength" : 18664,
            "byteOffset" : 87696
        },
        {
            "buffer" : 0,
            "byteLength" : 7344,
            "byteOffset" : 106360
        }
    ],
    "buffers" : [
        {
            "byteLength" : 113704,
            "uri" : "github.bin"
        }
    ]
}
