{
    "asset" : {
        "generator" : "Khronos glTF Blender I/O v1.7.33",
        "version" : "2.0"
    },
    "scene" : 0,
    "scenes" : [
        {
            "name" : "Scene",
            "nodes" : [
                0
            ]
        }
    ],
    "nodes" : [
        {
            "mesh" : 0,
            "name" : "Circle.001",
            "rotation" : [
                0,
                0,
                -0.7071067690849304,
                0.7071068286895752
            ],
            "scale" : [
                0.6778192520141602,
                0.6778192520141602,
                0.6778192520141602
            ],
            "translation" : [
                0,
                0.7093510627746582,
                0.018667135387659073
            ]
        }
    ],
    "materials" : [
        {
            "doubleSided" : true,
            "name" : "Material.001",
            "pbrMetallicRoughness" : {
                "metallicFactor" : 0,
                "roughnessFactor" : 0.5
            }
        }
    ],
    "meshes" : [
        {
            "name" : "Circle.001",
            "primitives" : [
                {
                    "attributes" : {
                        "POSITION" : 0,
                        "NORMAL" : 1,
                        "TEXCOORD_0" : 2
                    },
                    "indices" : 3,
                    "material" : 0
                }
            ]
        }
    ],
    "accessors" : [
        {
            "bufferView" : 0,
            "componentType" : 5126,
            "count" : 1066,
            "max" : [
                2.0700860023498535,
                0.8492671251296997,
                1.9637285470962524
            ],
            "min" : [
                -1.8745019435882568,
                -3.1810242262508837e-07,
                -1.980859398841858
            ],
            "type" : "VEC3"
        },
        {
            "bufferView" : 1,
            "componentType" : 5126,
            "count" : 1066,
            "type" : "VEC3"
        },
        {
            "bufferView" : 2,
            "componentType" : 5126,
            "count" : 1066,
            "type" : "VEC2"
        },
        {
            "bufferView" : 3,
            "componentType" : 5123,
            "count" : 1716,
            "type" : "SCALAR"
        }
    ],
    "bufferViews" : [
        {
            "buffer" : 0,
            "byteLength" : 12792,
            "byteOffset" : 0
        },
        {
            "buffer" : 0,
            "byteLength" : 12792,
            "byteOffset" : 12792
        },
        {
            "buffer" : 0,
            "byteLength" : 8528,
            "byteOffset" : 25584
        },
        {
            "buffer" : 0,
            "byteLength" : 3432,
            "byteOffset" : 34112
        }
    ],
    "buffers" : [
        {
            "byteLength" : 37544,
            "uri" : "insta.bin"
        }
    ]
}
