{"asset":{"version":"2.0","generator":"VECTARY"},"nodes":[{"translation":[-0.16324999964237213,0,0],"scale":[0.001,0.001,0.001],"rotation":[-0.7071067811865475,0,0,0.7071067811865476],"name":"3D Text - J","mesh":0},{"translation":[-0.13624999964237214,0,0],"scale":[0.001,0.001,0.001],"rotation":[-0.7071067811865475,0,0,0.7071067811865476],"name":"3D Text - A","mesh":1},{"translation":[-0.10924999964237213,0,0],"scale":[0.001,0.001,0.001],"rotation":[-0.7071067811865475,0,0,0.7071067811865476],"name":"3D Text - W","mesh":2},{"translation":[-0.08224999964237213,0,0],"scale":[0.001,0.001,0.001],"rotation":[-0.7071067811865475,0,0,0.7071067811865476],"name":"3D Text - A","mesh":3},{"translation":[-0.055249999642372136,0,0],"scale":[0.001,0.001,0.001],"rotation":[-0.7071067811865475,0,0,0.7071067811865476],"name":"3D Text - D","mesh":4},{"translation":[-0.0012499996423721313,0,0],"scale":[0.001,0.001,0.001],"rotation":[-0.7071067811865475,0,0,0.7071067811865476],"name":"3D Text - K","mesh":5},{"translation":[0.02575000035762787,0,0],"scale":[0.001,0.001,0.001],"rotation":[-0.7071067811865475,0,0,0.7071067811865476],"name":"3D Text - A","mesh":6},{"translation":[0.05275000035762787,0,0],"scale":[0.001,0.001,0.001],"rotation":[-0.7071067811865475,0,0,0.7071067811865476],"name":"3D Text - R","mesh":7},{"translation":[0.07975000035762787,0,0],"scale":[0.001,0.001,0.001],"rotation":[-0.7071067811865475,0,0,0.7071067811865476],"name":"3D Text - A","mesh":8},{"translation":[0.10675000035762787,0,0],"scale":[0.001,0.001,0.001],"rotation":[-0.7071067811865475,0,0,0.7071067811865476],"name":"3D Text - K","mesh":9},{"translation":[0.13375000035762788,0,0],"scale":[0.001,0.001,0.001],"rotation":[-0.7071067811865475,0,0,0.7071067811865476],"name":"3D Text - I","mesh":10}],"materials":[{"pbrMetallicRoughness":{"baseColorFactor":[1,1,1,1],"metallicFactor":0,"roughnessFactor":0.2},"name":"Excalibur","emissiveFactor":[0,0,0],"alphaMode":"OPAQUE","doubleSided":false}],"meshes":[{"primitives":[{"mode":4,"attributes":{"POSITION":1,"NORMAL":2},"material":0,"indices":0}]},{"primitives":[{"mode":4,"attributes":{"POSITION":4,"NORMAL":5},"material":0,"indices":3}]},{"primitives":[{"mode":4,"attributes":{"POSITION":7,"NORMAL":8},"material":0,"indices":6}]},{"primitives":[{"mode":4,"attributes":{"POSITION":4,"NORMAL":5},"material":0,"indices":3}]},{"primitives":[{"mode":4,"attributes":{"POSITION":10,"NORMAL":11},"material":0,"indices":9}]},{"primitives":[{"mode":4,"attributes":{"POSITION":13,"NORMAL":14},"material":0,"indices":12}]},{"primitives":[{"mode":4,"attributes":{"POSITION":4,"NORMAL":5},"material":0,"indices":3}]},{"primitives":[{"mode":4,"attributes":{"POSITION":16,"NORMAL":17},"material":0,"indices":15}]},{"primitives":[{"mode":4,"attributes":{"POSITION":4,"NORMAL":5},"material":0,"indices":3}]},{"primitives":[{"mode":4,"attributes":{"POSITION":13,"NORMAL":14},"material":0,"indices":12}]},{"primitives":[{"mode":4,"attributes":{"POSITION":19,"NORMAL":20},"material":0,"indices":18}]}],"accessors":[{"bufferView":0,"byteOffset":0,"componentType":5125,"count":780,"type":"SCALAR"},{"bufferView":1,"byteOffset":0,"componentType":5126,"count":520,"max":[24,2.1370088570227914e-15,34.900001525878906],"min":[3.700000047683716,-10,-0.6000000238418579],"type":"VEC3"},{"bufferView":2,"byteOffset":0,"componentType":5126,"count":520,"type":"VEC3"},{"bufferView":3,"byteOffset":0,"componentType":5125,"count":144,"type":"SCALAR"},{"bufferView":4,"byteOffset":0,"componentType":5126,"count":96,"max":[28.5,2.1370088570227914e-15,34.900001525878906],"min":[1.5499999523162842,-10,0],"type":"VEC3"},{"bufferView":5,"byteOffset":0,"componentType":5126,"count":96,"type":"VEC3"},{"bufferView":6,"byteOffset":0,"componentType":5125,"count":204,"type":"SCALAR"},{"bufferView":7,"byteOffset":0,"componentType":5126,"count":135,"max":[28.25,2.1370088570227914e-15,34.900001525878906],"min":[1.75,-10,0],"type":"VEC3"},{"bufferView":8,"byteOffset":0,"componentType":5126,"count":135,"type":"VEC3"},{"bufferView":9,"byteOffset":0,"componentType":5125,"count":564,"type":"SCALAR"},{"bufferView":10,"byteOffset":0,"componentType":5126,"count":374,"max":[27.200000762939453,2.1370088570227914e-15,34.900001525878906],"min":[4.75,-10,0],"type":"VEC3"},{"bufferView":11,"byteOffset":0,"componentType":5126,"count":374,"type":"VEC3"},{"bufferView":12,"byteOffset":0,"componentType":5125,"count":156,"type":"SCALAR"},{"bufferView":13,"byteOffset":0,"componentType":5126,"count":107,"max":[28.899999618530273,2.1370088570227914e-15,34.900001525878906],"min":[4.25,-10,0],"type":"VEC3"},{"bufferView":14,"byteOffset":0,"componentType":5126,"count":107,"type":"VEC3"},{"bufferView":15,"byteOffset":0,"componentType":5125,"count":624,"type":"SCALAR"},{"bufferView":16,"byteOffset":0,"componentType":5126,"count":414,"max":[27.450000762939453,2.1370088570227914e-15,34.900001525878906],"min":[4.5,-10,0],"type":"VEC3"},{"bufferView":17,"byteOffset":0,"componentType":5126,"count":414,"type":"VEC3"},{"bufferView":18,"byteOffset":0,"componentType":5125,"count":132,"type":"SCALAR"},{"bufferView":19,"byteOffset":0,"componentType":5126,"count":74,"max":[25.799999237060547,2.1370088570227914e-15,34.900001525878906],"min":[4.199999809265137,-10,0],"type":"VEC3"},{"bufferView":20,"byteOffset":0,"componentType":5126,"count":74,"type":"VEC3"}],"bufferViews":[{"buffer":0,"byteOffset":0,"byteLength":3120,"target":34963},{"buffer":0,"byteOffset":3120,"byteLength":6240,"target":34962},{"buffer":0,"byteOffset":9360,"byteLength":6240,"target":34962},{"buffer":0,"byteOffset":15600,"byteLength":576,"target":34963},{"buffer":0,"byteOffset":16176,"byteLength":1152,"target":34962},{"buffer":0,"byteOffset":17328,"byteLength":1152,"target":34962},{"buffer":0,"byteOffset":18480,"byteLength":816,"target":34963},{"buffer":0,"byteOffset":19296,"byteLength":1620,"target":34962},{"buffer":0,"byteOffset":20916,"byteLength":1620,"target":34962},{"buffer":0,"byteOffset":22536,"byteLength":2256,"target":34963},{"buffer":0,"byteOffset":24792,"byteLength":4488,"target":34962},{"buffer":0,"byteOffset":29280,"byteLength":4488,"target":34962},{"buffer":0,"byteOffset":33768,"byteLength":624,"target":34963},{"buffer":0,"byteOffset":34392,"byteLength":1284,"target":34962},{"buffer":0,"byteOffset":35676,"byteLength":1284,"target":34962},{"buffer":0,"byteOffset":36960,"byteLength":2496,"target":34963},{"buffer":0,"byteOffset":39456,"byteLength":4968,"target":34962},{"buffer":0,"byteOffset":44424,"byteLength":4968,"target":34962},{"buffer":0,"byteOffset":49392,"byteLength":528,"target":34963},{"buffer":0,"byteOffset":49920,"byteLength":888,"target":34962},{"buffer":0,"byteOffset":50808,"byteLength":888,"target":34962}],"scene":0,"scenes":[{"nodes":[0,1,2,3,4,5,6,7,8,9,10],"name":"Project Name"}],"extensionsUsed":["KHR_texture_transform"],"buffers":[{"byteLength":51696,"uri":"ProjectName.bin"}]}