{
    "asset" : {
        "generator" : "Khronos glTF Blender I/O v1.7.33",
        "version" : "2.0"
    },
    "scene" : 0,
    "scenes" : [
        {
            "name" : "Scene",
            "nodes" : [
                3,
                6,
                9,
                10
            ]
        }
    ],
    "nodes" : [
        {
            "name" : "staue1"
        },
        {
            "children" : [
                0
            ],
            "name" : "RootNode"
        },
        {
            "children" : [
                1
            ],
            "name" : "be56c0ccaa7c44a3aa44fd56d05338c0.fbx",
            "rotation" : [
                0.7071068286895752,
                0,
                0,
                0.7071068286895752
            ],
            "scale" : [
                0.009999999776482582,
                0.009999999776482582,
                0.009999999776482582
            ]
        },
        {
            "children" : [
                2
            ],
            "name" : "Sketchfab_model",
            "rotation" : [
                -0.7071068286895752,
                0,
                0,
                0.7071068286895752
            ]
        },
        {
            "mesh" : 0,
            "name" : "Object_2",
            "scale" : [
                0.38970208168029785,
                0.38970208168029785,
                0.38970208168029785
            ],
            "translation" : [
                0,
                -1.0425227880477905,
                3.4914093017578125
            ]
        },
        {
            "children" : [
                4
            ],
            "name" : "White Eagle.obj.cleaner.materialmerger.gles"
        },
        {
            "children" : [
                5
            ],
            "name" : "Sketchfab_model.001",
            "rotation" : [
                -0.7071068286895752,
                0,
                0,
                0.7071068286895752
            ]
        },
        {
            "name" : "1.OBJ.cleaner.materialmerger.gles"
        },
        {
            "children" : [
                7
            ],
            "name" : "RootNode (model correction matrix)",
            "rotation" : [
                -0.7071068286895752,
                0,
                0,
                0.7071068286895752
            ],
            "translation" : [
                0,
                -7.0305867195129395,
                4.2334303855896
            ]
        },
        {
            "children" : [
                8
            ],
            "name" : "RootNode (gltf orientation matrix)",
            "rotation" : [
                -0.7071068286895752,
                0,
                0,
                0.7071068286895752
            ]
        },
        {
            "mesh" : 1,
            "name" : "Cube",
            "scale" : [
                2.4141697883605957,
                1.48687744140625,
                2.8816213607788086
            ],
            "translation" : [
                0,
                2.022127628326416,
                0.6473860740661621
            ]
        }
    ],
    "materials" : [
        {
            "doubleSided" : true,
            "name" : "Material.001",
            "pbrMetallicRoughness" : {
                "metallicFactor" : 0,
                "roughnessFactor" : 0.5
            }
        },
        {
            "doubleSided" : true,
            "name" : "Material.002",
            "pbrMetallicRoughness" : {
                "metallicFactor" : 0,
                "roughnessFactor" : 0.5
            }
        }
    ],
    "meshes" : [
        {
            "name" : "Object_0",
            "primitives" : [
                {
                    "attributes" : {
                        "POSITION" : 0,
                        "NORMAL" : 1,
                        "TEXCOORD_0" : 2
                    },
                    "indices" : 3,
                    "material" : 0
                }
            ]
        },
        {
            "name" : "Cube.001",
            "primitives" : [
                {
                    "attributes" : {
                        "POSITION" : 4,
                        "NORMAL" : 5,
                        "TEXCOORD_0" : 6
                    },
                    "indices" : 7,
                    "material" : 1
                }
            ]
        }
    ],
    "accessors" : [
        {
            "bufferView" : 0,
            "componentType" : 5126,
            "count" : 21787,
            "max" : [
                26.38713264465332,
                13.215574264526367,
                14.00943374633789
            ],
            "min" : [
                -26.3037052154541,
                -6.286499977111816,
                -0.24226300418376923
            ],
            "type" : "VEC3"
        },
        {
            "bufferView" : 1,
            "componentType" : 5126,
            "count" : 21787,
            "type" : "VEC3"
        },
        {
            "bufferView" : 2,
            "componentType" : 5126,
            "count" : 21787,
            "type" : "VEC2"
        },
        {
            "bufferView" : 3,
            "componentType" : 5123,
            "count" : 21789,
            "type" : "SCALAR"
        },
        {
            "bufferView" : 4,
            "componentType" : 5126,
            "count" : 24,
            "max" : [
                1,
                1,
                1
            ],
            "min" : [
                -1,
                -1,
                -1
            ],
            "type" : "VEC3"
        },
        {
            "bufferView" : 5,
            "componentType" : 5126,
            "count" : 24,
            "type" : "VEC3"
        },
        {
            "bufferView" : 6,
            "componentType" : 5126,
            "count" : 24,
            "type" : "VEC2"
        },
        {
            "bufferView" : 7,
            "componentType" : 5123,
            "count" : 36,
            "type" : "SCALAR"
        }
    ],
    "bufferViews" : [
        {
            "buffer" : 0,
            "byteLength" : 261444,
            "byteOffset" : 0
        },
        {
            "buffer" : 0,
            "byteLength" : 261444,
            "byteOffset" : 261444
        },
        {
            "buffer" : 0,
            "byteLength" : 174296,
            "byteOffset" : 522888
        },
        {
            "buffer" : 0,
            "byteLength" : 43578,
            "byteOffset" : 697184
        },
        {
            "buffer" : 0,
            "byteLength" : 288,
            "byteOffset" : 740764
        },
        {
            "buffer" : 0,
            "byteLength" : 288,
            "byteOffset" : 741052
        },
        {
            "buffer" : 0,
            "byteLength" : 192,
            "byteOffset" : 741340
        },
        {
            "buffer" : 0,
            "byteLength" : 72,
            "byteOffset" : 741532
        }
    ],
    "buffers" : [
        {
            "byteLength" : 741604,
            "uri" : "scene.bin"
        }
    ]
}
