{
    "asset" : {
        "generator" : "Khronos glTF Blender I/O v1.7.33",
        "version" : "2.0"
    },
    "scene" : 0,
    "scenes" : [
        {
            "name" : "Scene",
            "nodes" : [
                0,
                1
            ]
        }
    ],
    "nodes" : [
        {
            "mesh" : 0,
            "name" : "Circle",
            "rotation" : [
                0,
                0,
                -0.7071067690849304,
                0.7071068286895752
            ],
            "translation" : [
                0,
                1.8223015069961548,
                0
            ]
        },
        {
            "mesh" : 1,
            "name" : "Circle.001",
            "rotation" : [
                0,
                0,
                -0.7071067690849304,
                0.7071068286895752
            ],
            "scale" : [
                2.2044317722320557,
                2.2044317722320557,
                2.2044317722320557
            ],
            "translation" : [
                0,
                2,
                0
            ]
        }
    ],
    "materials" : [
        {
            "doubleSided" : true,
            "name" : "Material.002",
            "pbrMetallicRoughness" : {
                "metallicFactor" : 0,
                "roughnessFactor" : 0.5
            }
        }
    ],
    "meshes" : [
        {
            "name" : "Circle",
            "primitives" : [
                {
                    "attributes" : {
                        "POSITION" : 0,
                        "NORMAL" : 1,
                        "TEXCOORD_0" : 2
                    },
                    "indices" : 3,
                    "material" : 0
                }
            ]
        },
        {
            "name" : "Circle.001",
            "primitives" : [
                {
                    "attributes" : {
                        "POSITION" : 4,
                        "NORMAL" : 5,
                        "TEXCOORD_0" : 6
                    },
                    "indices" : 7
                }
            ]
        }
    ],
    "accessors" : [
        {
            "bufferView" : 0,
            "componentType" : 5126,
            "count" : 255,
            "max" : [
                2.0061073303222656,
                6.588933842976985e-08,
                2.136777400970459
            ],
            "min" : [
                -1.1021190881729126,
                -0.740889847278595,
                -1.0686817169189453
            ],
            "type" : "VEC3"
        },
        {
            "bufferView" : 1,
            "componentType" : 5126,
            "count" : 255,
            "type" : "VEC3"
        },
        {
            "bufferView" : 2,
            "componentType" : 5126,
            "count" : 255,
            "type" : "VEC2"
        },
        {
            "bufferView" : 3,
            "componentType" : 5123,
            "count" : 360,
            "type" : "SCALAR"
        },
        {
            "bufferView" : 4,
            "componentType" : 5126,
            "count" : 412,
            "max" : [
                1,
                0,
                1
            ],
            "min" : [
                -1,
                -0.3257124125957489,
                -1
            ],
            "type" : "VEC3"
        },
        {
            "bufferView" : 5,
            "componentType" : 5126,
            "count" : 412,
            "type" : "VEC3"
        },
        {
            "bufferView" : 6,
            "componentType" : 5126,
            "count" : 412,
            "type" : "VEC2"
        },
        {
            "bufferView" : 7,
            "componentType" : 5123,
            "count" : 720,
            "type" : "SCALAR"
        }
    ],
    "bufferViews" : [
        {
            "buffer" : 0,
            "byteLength" : 3060,
            "byteOffset" : 0
        },
        {
            "buffer" : 0,
            "byteLength" : 3060,
            "byteOffset" : 3060
        },
        {
            "buffer" : 0,
            "byteLength" : 2040,
            "byteOffset" : 6120
        },
        {
            "buffer" : 0,
            "byteLength" : 720,
            "byteOffset" : 8160
        },
        {
            "buffer" : 0,
            "byteLength" : 4944,
            "byteOffset" : 8880
        },
        {
            "buffer" : 0,
            "byteLength" : 4944,
            "byteOffset" : 13824
        },
        {
            "buffer" : 0,
            "byteLength" : 3296,
            "byteOffset" : 18768
        },
        {
            "buffer" : 0,
            "byteLength" : 1440,
            "byteOffset" : 22064
        }
    ],
    "buffers" : [
        {
            "byteLength" : 23504,
            "uri" : "whatsapp.bin"
        }
    ]
}
